<?xml version="1.0" encoding="UTF-8" standalone="no"?>
<svg width="110px" height="23px" viewBox="0 0 110 23" version="1.1" xmlns="http://www.w3.org/2000/svg" xmlns:xlink="http://www.w3.org/1999/xlink">
    <!-- Generator: Sketch 3.6.1 (26313) - http://www.bohemiancoding.com/sketch -->
    <title>microsoft-logo-invert</title>
    <desc>Created with Sketch.</desc>
    <defs></defs>
    <g id="Page-1" stroke="none" stroke-width="1" fill="none" fill-rule="evenodd">
        <g id="microsoft-logo-invert">
            <g id="Page-1">
                <g id="microsoft-logo">
                    <g id="Page-1">
                        <g id="microsoft">
                            <path d="M109.972926,10.621117 L109.972926,8.68707447 L107.571191,8.68707447 L107.571191,5.68029255 L107.490351,5.70515957 L105.234495,6.39531915 L105.19008,6.40888298 L105.19008,8.68707447 L101.629574,8.68707447 L101.629574,7.41805851 C101.629574,6.82710106 101.761755,6.37484043 102.022128,6.07324468 C102.280771,5.77523936 102.650718,5.6237766 103.122394,5.6237766 C103.461622,5.6237766 103.812819,5.70369681 104.166144,5.8612766 L104.254707,5.90077128 L104.254707,3.86393617 L104.213085,3.84864362 C103.883431,3.73015957 103.434894,3.67045213 102.879176,3.67045213 C102.178644,3.67045213 101.542074,3.82284574 100.987021,4.1249734 C100.431569,4.4275 99.9946011,4.85941489 99.688617,5.40861702 C99.3835638,5.95715426 99.2287766,6.59066489 99.2287766,7.29172872 L99.2287766,8.68707447 L97.5564362,8.68707447 L97.5564362,10.621117 L99.2287766,10.621117 L99.2287766,18.7688564 L101.629574,18.7688564 L101.629574,10.621117 L105.19008,10.621117 L105.19008,15.7989096 C105.19008,17.9313564 106.195931,19.0120745 108.179574,19.0120745 C108.505638,19.0120745 108.848596,18.9737766 109.198989,18.8989096 C109.555511,18.8221809 109.79833,18.7454521 109.941277,18.6635372 L109.972926,18.6449202 L109.972926,16.6929255 L109.875319,16.7575532 C109.745,16.8445213 109.582766,16.9153989 109.392479,16.9680585 C109.201383,17.0217819 109.041809,17.0487766 108.918277,17.0487766 C108.453511,17.0487766 108.109766,16.9235106 107.89633,16.6764362 C107.680638,16.4271011 107.571202,15.9909309 107.571202,15.3809574 L107.571202,10.621117 L109.972926,10.621117 L109.972926,10.621117 L109.972926,10.621117 L109.972926,10.621117 Z M92.1950798,17.0489628 C91.3236702,17.0489628 90.6367021,16.76 90.1525266,16.1908511 C89.6654255,15.6187766 89.418617,14.8032181 89.418617,13.7670479 C89.418617,12.6980319 89.6654255,11.8613298 90.1527926,11.2791489 C90.637234,10.7008245 91.3176862,10.4073404 92.1755319,10.4073404 C93.0079787,10.4073404 93.6706117,10.6876596 94.1452128,11.240984 C94.6223404,11.7971011 94.8643617,12.6271543 94.8643617,13.7086702 C94.8643617,14.803484 94.6367021,15.6444415 94.187766,16.2069415 C93.7420213,16.7653191 93.0716755,17.0489628 92.1950798,17.0489628 L92.1950798,17.0489628 L92.1950798,17.0489628 L92.1950798,17.0489628 Z M92.3019947,8.44417553 C90.6394947,8.44417553 89.319016,8.9312766 88.3776596,9.89204787 C87.4368351,10.8529521 86.9597074,12.1826064 86.9597074,13.8445745 C86.9597074,15.4230319 87.4253989,16.6927128 88.343883,17.6177128 C89.262367,18.5431117 90.512367,19.0118617 92.0587766,19.0118617 C93.6703457,19.0118617 94.9644947,18.5179787 95.9055851,17.5439096 C96.8465426,16.5707713 97.3232713,15.25375 97.3232713,13.6306117 C97.3232713,12.0274202 96.8759309,10.7482979 95.9932181,9.82941489 C95.1101064,8.91013298 93.8679521,8.44417553 92.3019947,8.44417553 L92.3019947,8.44417553 L92.3019947,8.44417553 L92.3019947,8.44417553 Z M83.0888957,8.44412234 C81.9580447,8.44412234 81.0226723,8.73335106 80.3080447,9.30369681 C79.5891617,9.87736702 79.224534,10.6298936 79.224534,11.5403989 C79.224534,12.0136702 79.3032574,12.4341489 79.4581777,12.7906649 C79.6140287,13.1485106 79.8552521,13.4634043 80.1755979,13.727766 C80.493683,13.99 80.9843745,14.264734 81.6349064,14.5441223 C82.1815819,14.7691223 82.5894277,14.9595479 82.8484702,15.1095479 C83.1016617,15.2564894 83.2814489,15.4043617 83.3829117,15.5482447 C83.4814489,15.6890691 83.5315819,15.8817553 83.5315819,16.1197872 C83.5315819,16.7970479 83.0244011,17.1265691 81.9806511,17.1265691 C81.59355,17.1265691 81.1519277,17.0458511 80.6681511,16.8864096 C80.1841085,16.727234 79.7318479,16.4983777 79.3241351,16.2048936 L79.224534,16.133484 L79.224534,18.4447872 L79.2611032,18.4618085 C79.6008638,18.6185904 80.0290553,18.7507713 80.5338426,18.8548936 C81.0376989,18.959016 81.4954117,19.0120745 81.8931511,19.0120745 C83.1202787,19.0120745 84.1084436,18.721383 84.8294543,18.1477128 C85.5551191,17.5700532 85.9229383,16.7998404 85.9229383,15.8576862 C85.9229383,15.1781649 85.724933,14.5953191 85.3346404,14.1253723 C84.9471404,13.6591489 84.274534,13.2312234 83.3362362,12.8528989 C82.5887628,12.5528989 82.1099064,12.3038298 81.912433,12.1127394 C81.7220074,11.9280319 81.6253319,11.6668617 81.6253319,11.3361436 C81.6253319,11.0429255 81.7446138,10.8080851 81.9896936,10.6177926 C82.2366351,10.4265691 82.5802521,10.3293617 83.0113691,10.3293617 C83.4113691,10.3293617 83.8206777,10.3925266 84.2275926,10.5163298 C84.6343745,10.640133 84.9915553,10.8059574 85.2898266,11.008883 L85.3878319,11.0759043 L85.3878319,8.88335106 L85.3501989,8.86712766 C85.075066,8.74917553 84.7123,8.64824468 84.2717415,8.56632979 C83.8329117,8.48521277 83.4349064,8.44412234 83.0888957,8.44412234 L83.0888957,8.44412234 L83.0888957,8.44412234 L83.0888957,8.44412234 Z M72.9657574,17.0489628 C72.0946138,17.0489628 71.4073798,16.76 70.9233372,16.1908511 C70.4361032,15.6187766 70.1896936,14.803484 70.1896936,13.7670479 C70.1896936,12.6980319 70.4363691,11.8613298 70.9238691,11.2791489 C71.4079117,10.7008245 72.0882309,10.4073404 72.9464755,10.4073404 C73.7786564,10.4073404 74.4412894,10.6876596 74.9160234,11.240984 C75.3931511,11.7971011 75.6351723,12.6271543 75.6351723,13.7086702 C75.6351723,14.803484 75.4073798,15.6444415 74.9584436,16.2069415 C74.5126989,16.7653191 73.8426191,17.0489628 72.9657574,17.0489628 L72.9657574,17.0489628 L72.9657574,17.0489628 L72.9657574,17.0489628 Z M73.0729383,8.44417553 C71.4100394,8.44417553 70.0895606,8.9312766 69.1486032,9.89204787 C68.2077787,10.8529521 67.7303851,12.1826064 67.7303851,13.8445745 C67.7303851,15.4236968 68.1963426,16.6927128 69.1148266,17.6177128 C70.0333106,18.5431117 71.2831777,19.0118617 72.8297202,19.0118617 C74.4408904,19.0118617 75.7354383,18.5179787 76.6765287,17.5439096 C77.6172202,16.5707713 78.0942149,15.25375 78.0942149,13.6306117 C78.0942149,12.0274202 77.6467415,10.7482979 76.7638957,9.82941489 C75.8805181,8.91013298 74.6386298,8.44417553 73.0729383,8.44417553 L73.0729383,8.44417553 L73.0729383,8.44417553 L73.0729383,8.44417553 Z M64.08605,10.4329521 L64.08605,8.68707447 L61.7145074,8.68707447 L61.7145074,18.7685904 L64.08605,18.7685904 L64.08605,13.6115426 C64.08605,12.7345479 64.2848532,12.0142021 64.6771404,11.4700532 C65.0645074,10.9324202 65.5807309,10.6599468 66.210917,10.6599468 C66.4244809,10.6599468 66.6642415,10.6951862 66.9239489,10.764867 C67.1809968,10.8341489 67.367167,10.9092819 67.4770074,10.9884043 L67.5766085,11.0606117 L67.5766085,8.66978723 L67.5381777,8.65329787 C67.3173,8.55941489 67.004933,8.51207447 66.6095872,8.51207447 C66.0137096,8.51207447 65.4803319,8.70356383 65.02355,9.08055851 C64.6226191,9.41194149 64.3327255,9.86632979 64.111183,10.4329521 L64.08605,10.4329521 L64.08605,10.4329521 L64.08605,10.4329521 L64.08605,10.4329521 Z M57.467633,8.44412234 C56.379734,8.44412234 55.4092553,8.6775 54.5837234,9.13734043 C53.7565957,9.59824468 53.1169681,10.2563564 52.6817287,11.0931915 C52.248484,11.9280319 52.0285372,12.9031649 52.0285372,13.9905319 C52.0285372,14.9430585 52.2418351,15.8172606 52.6633777,16.5876064 C53.0851862,17.3592819 53.6822606,17.9630053 54.4379787,18.3817553 C55.192633,18.7999734 56.0648404,19.0120745 57.0305319,19.0120745 C58.1575266,19.0120745 59.1197606,18.7866755 59.8913032,18.3423936 L59.9224202,18.3244415 L59.9224202,16.1518351 L59.8228191,16.2245745 C59.4733511,16.4790957 59.0827926,16.6822872 58.6625798,16.8286968 C58.2434309,16.9749734 57.86125,17.0489096 57.5262766,17.0489096 C56.5956915,17.0489096 55.84875,16.7576862 55.3064628,16.18375 C54.7629787,15.608883 54.4874468,14.8018351 54.4874468,13.7861436 C54.4874468,12.7640691 54.7748138,11.9362766 55.3411702,11.3253723 C55.9056649,10.7163298 56.6540691,10.4074202 57.5653723,10.4074202 C58.3448936,10.4074202 59.1044681,10.671383 59.8230851,11.1926596 L59.9224202,11.264867 L59.9224202,8.9756383 L59.8903723,8.95755319 C59.6198936,8.8062234 59.2511436,8.6812234 58.7931649,8.58640957 C58.3373138,8.4918617 57.8914362,8.44412234 57.467633,8.44412234 L57.467633,8.44412234 L57.467633,8.44412234 L57.467633,8.44412234 Z M50.3952128,8.68710106 L48.0236702,8.68710106 L48.0236702,18.768617 L50.3952128,18.768617 L50.3952128,8.68710106 L50.3952128,8.68710106 L50.3952128,8.68710106 L50.3952128,8.68710106 Z M49.2336436,4.39228723 C48.8433511,4.39228723 48.5029255,4.52513298 48.2232713,4.78843085 C47.9424202,5.0525266 47.799867,5.3849734 47.799867,5.77726064 C47.799867,6.16343085 47.9406915,6.48976064 48.21875,6.74680851 C48.4950798,7.00305851 48.8365691,7.13297872 49.2336436,7.13297872 C49.6305851,7.13297872 49.9734043,7.00305851 50.2530585,6.74720745 C50.5345745,6.48976064 50.6772606,6.16343085 50.6772606,5.77726064 C50.6772606,5.39867021 50.5384309,5.06954787 50.2646277,4.79906915 C49.9912234,4.52912234 49.6442819,4.39228723 49.2336436,4.39228723 L49.2336436,4.39228723 L49.2336436,4.39228723 L49.2336436,4.39228723 Z M43.3166351,7.94329787 L43.3166351,18.7685638 L45.7368479,18.7685638 L45.7368479,4.70101064 L42.3872468,4.70101064 L38.129534,15.1499468 L33.9977521,4.70101064 L30.5117149,4.70101064 L30.5117149,18.7685638 L32.78605,18.7685638 L32.78605,7.94223404 L32.8642415,7.94223404 L37.2272734,18.7685638 L38.9436298,18.7685638 L43.2385766,7.94329787 L43.3166351,7.94329787 L43.3166351,7.94329787 L43.3166351,7.94329787 L43.3166351,7.94329787 Z" id="path5056" fill="#FFFFFF"></path>
                            <path d="M11,11 L0,11 L0,0 L11,0 L11,11 L11,11 L11,11 L11,11 Z" id="path5058" fill="#F1511B"></path>
                            <path d="M23,11 L12,11 L12,0 L23,0 L23,11 L23,11 L23,11 L23,11 Z" id="path5060" fill="#80CC28"></path>
                            <path d="M11,23 L0,23 L0,12 L11,12 L11,23 L11,23 L11,23 L11,23 Z" id="path5062" fill="#00ADEF"></path>
                            <path d="M23,23 L12,23 L12,12 L23,12 L23,23 L23,23 L23,23 L23,23 Z" id="path5064" fill="#FBBC09"></path>
                        </g>
                    </g>
                </g>
            </g>
        </g>
    </g>
</svg>